<?xml version="1.0" encoding="utf-8"?>
<!-- Generator: Adobe Illustrator 16.0.0, SVG Export Plug-In . SVG Version: 6.00 Build 0)  -->
<!DOCTYPE svg PUBLIC "-//W3C//DTD SVG 1.1//EN" "http://www.w3.org/Graphics/SVG/1.1/DTD/svg11.dtd">
<svg version="1.1" id="Layer_1" xmlns="http://www.w3.org/2000/svg" xmlns:xlink="http://www.w3.org/1999/xlink" x="0px" y="0px"
	 width="841.89px" height="153.841px" viewBox="0 0 841.89 153.841" enable-background="new 0 0 841.89 153.841"
	 xml:space="preserve">
<g>
	<g>
		<g>
			<path fill="#18343E" d="M24.366,47.501c5.768-13.27,18.98-22.547,34.368-22.547c5.848,0,11.375,1.338,16.307,3.726L95.78,13.173
				C85.617,4.938,72.677,0,58.581,0C29.9,0,5.998,20.412,0.59,47.501H24.366z"/>
		</g>
		<g>
			<path fill="#18343E" d="M94.618,51.634c1.025,3.417,1.585,7.04,1.585,10.792c0,20.689-16.773,37.461-37.469,37.461
				c-16.457,0-30.426-10.612-35.457-25.364H1.47c6.77,25.205,29.77,43.762,57.111,43.762c32.66,0,59.144-26.479,59.144-59.143
				c0-9.274-2.138-18.042-5.941-25.854L94.618,51.634z"/>
		</g>
	</g>
	<g>
		<g>
			<path fill="#18343E" d="M182.595,2.297h18.98v118.879h-18.98V2.297z"/>
			<path fill="#18343E" d="M222.724,2.297h18.981v17.982h-18.981V2.297z M222.724,35.098h18.981v86.079h-18.981V35.098z"/>
			<path fill="#18343E" d="M262.354,35.098h17.981v12.653l0.333,0.333c5.661-9.49,15.484-15.317,26.807-15.317
				c18.647,0,30.469,9.99,30.469,29.303v59.107h-18.98V67.065c-0.333-13.486-5.661-19.314-16.816-19.314
				c-12.653,0-20.813,9.99-20.813,22.644v50.782h-18.98V35.098z"/>
			<path fill="#18343E" d="M358.43,2.297h18.98v67.598l34.298-34.798h23.312l-32.968,31.634l36.132,54.445h-23.146l-26.307-41.791
				L377.41,90.374v30.803h-18.98V2.297z"/>
			<path fill="#18343E" d="M479.314,121.177h-7.825l-34.465-85.58h7.326l30.969,78.254h0.332l28.971-78.254h6.993L479.314,121.177z"
				/>
			<path fill="#18343E" d="M583.708,105.359c0,4.995,0,10.322,5.661,10.322c1.166,0,2.664-0.166,4.662-0.499v5.328
				c-1.831,0.333-3.496,0.666-5.161,0.666c-9.99,0-11.488-5.495-11.488-12.487v-4.496h-0.333
				c-3.996,10.157-15.484,18.981-31.801,18.981c-16.15,0-28.638-6.161-28.638-24.143c0-19.979,17.315-24.142,31.468-25.308
				c28.305-1.998,29.47-3.829,29.47-17.815c0-3.83-4.329-16.816-23.809-16.816c-15.318,0-25.475,7.992-26.307,22.81h-6.327
				c0.833-18.814,12.487-28.304,32.634-28.304c14.984,0,29.969,4.662,29.969,22.311V105.359z M577.382,72.559
				c-4.995,5.661-18.648,4.995-30.969,6.66c-14.984,1.665-23.477,6.993-23.477,19.813c0,10.323,7.493,18.647,22.478,18.647
				c28.804,0,31.968-24.642,31.968-29.137V72.559z"/>
			<path fill="#18343E" d="M674.623,35.597v81.084c0,6.66,0,38.295-36.963,37.129c-18.314,0-32.467-6.826-33.466-26.639h6.327
				c1.332,15.15,13.319,21.145,27.306,21.145c29.969,0,30.469-24.475,30.469-30.136V98.533h-0.333
				c-5.994,12.653-16.483,19.479-30.969,19.479c-25.141,0-36.962-18.48-36.962-42.29c0-22.644,12.82-42.124,36.962-42.124
				c13.32,0,26.307,6.993,30.969,19.813h0.333V35.597H674.623z M606.358,75.723c0,20.146,10.49,36.796,30.636,36.796
				c20.813,0,31.135-17.482,31.135-36.796c0-19.147-10.156-36.629-31.135-36.629C616.349,39.093,606.358,57.575,606.358,75.723z"/>
			<path fill="#18343E" d="M756.38,105.359c0,4.995,0,10.322,5.66,10.322c1.166,0,2.664-0.166,4.662-0.499v5.328
				c-1.831,0.333-3.496,0.666-5.161,0.666c-9.99,0-11.488-5.495-11.488-12.487v-4.496h-0.333
				c-3.996,10.157-15.484,18.981-31.801,18.981c-16.15,0-28.638-6.161-28.638-24.143c0-19.979,17.315-24.142,31.468-25.308
				c28.305-1.998,29.47-3.829,29.47-17.815c0-3.83-4.329-16.816-23.809-16.816c-15.318,0-25.475,7.992-26.307,22.81h-6.327
				c0.833-18.814,12.487-28.304,32.634-28.304c14.984,0,29.97,4.662,29.97,22.311V105.359z M750.053,72.559
				c-4.995,5.661-18.647,4.995-30.969,6.66c-14.984,1.665-23.476,6.993-23.476,19.813c0,10.323,7.492,18.647,22.477,18.647
				c28.804,0,31.968-24.642,31.968-29.137V72.559z"/>
			<path fill="#18343E" d="M779.529,92.705c0.999,15.817,12.82,24.975,28.305,24.975c11.155,0,27.139-3.329,27.139-18.147
				c0-14.485-14.651-16.65-29.304-19.647c-14.818-2.997-29.47-6.826-29.47-24.308c0-16.983,16.483-21.978,30.969-21.978
				c18.147,0,31.634,7.825,31.634,27.305h-6.326c-0.167-15.484-10.989-21.811-25.308-21.811c-11.655,0-24.642,4.329-24.642,16.483
				c0,13.653,14.651,15.817,28.471,18.814c16.982,3.164,30.303,7.159,30.303,25.142c0,18.48-18.481,23.643-33.466,23.643
				c-19.48,0-34.132-10.49-34.632-30.47H779.529z"/>
		</g>
	</g>
</g>
</svg>
