<?xml version="1.0" encoding="utf-8"?>
<!-- Generator: Adobe Illustrator 16.0.0, SVG Export Plug-In . SVG Version: 6.00 Build 0)  -->
<!DOCTYPE svg PUBLIC "-//W3C//DTD SVG 1.1//EN" "http://www.w3.org/Graphics/SVG/1.1/DTD/svg11.dtd">
<svg version="1.1" id="Layer_1" xmlns="http://www.w3.org/2000/svg" xmlns:xlink="http://www.w3.org/1999/xlink" x="0px" y="0px"
	 width="841.89px" height="153.84px" viewBox="0 0 841.89 153.84" enable-background="new 0 0 841.89 153.84" xml:space="preserve">
<g>
	<g>
		<g>
			<path fill="#FFFFFF" d="M24.366,47.501c5.768-13.27,18.98-22.547,34.368-22.547c5.848,0,11.375,1.338,16.307,3.726L95.78,13.173
				C85.617,4.938,72.677,0,58.581,0C29.9,0,5.998,20.412,0.59,47.501H24.366z"/>
		</g>
		<g>
			<path fill="#FFFFFF" d="M94.618,51.634c1.025,3.417,1.585,7.04,1.585,10.792c0,20.69-16.773,37.461-37.469,37.461
				c-16.457,0-30.426-10.612-35.457-25.364H1.47c6.77,25.205,29.77,43.763,57.111,43.763c32.66,0,59.144-26.479,59.144-59.144
				c0-9.274-2.138-18.042-5.941-25.854L94.618,51.634z"/>
		</g>
	</g>
	<g>
		<g>
			<path fill="#FFFFFF" d="M182.595,2.297h18.98v118.879h-18.98V2.297z"/>
			<path fill="#FFFFFF" d="M222.724,2.297h18.981v17.982h-18.981V2.297z M222.724,35.098h18.981v86.078h-18.981V35.098z"/>
			<path fill="#FFFFFF" d="M262.354,35.098h17.981v12.653l0.333,0.333c5.661-9.49,15.484-15.317,26.807-15.317
				c18.647,0,30.47,9.99,30.47,29.303v59.106h-18.98V67.065c-0.333-13.486-5.661-19.314-16.816-19.314
				c-12.653,0-20.813,9.99-20.813,22.644v50.781h-18.98L262.354,35.098L262.354,35.098z"/>
			<path fill="#FFFFFF" d="M358.43,2.297h18.98v67.598l34.298-34.798h23.311l-32.967,31.634l36.131,54.445h-23.145l-26.307-41.791
				L377.41,90.374v30.803h-18.98V2.297z"/>
			<path fill="#FFFFFF" d="M479.314,121.176h-7.824l-34.465-85.579h7.324l30.971,78.254h0.332l28.971-78.254h6.992L479.314,121.176z
				"/>
			<path fill="#FFFFFF" d="M583.708,105.359c0,4.995,0,10.322,5.66,10.322c1.166,0,2.664-0.166,4.662-0.499v5.328
				c-1.83,0.332-3.496,0.666-5.16,0.666c-9.99,0-11.488-5.495-11.488-12.487v-4.496h-0.334
				c-3.996,10.157-15.482,18.981-31.801,18.981c-16.15,0-28.637-6.161-28.637-24.143c0-19.98,17.314-24.143,31.467-25.309
				c28.305-1.998,29.471-3.829,29.471-17.815c0-3.83-4.33-16.816-23.809-16.816c-15.318,0-25.477,7.992-26.309,22.81h-6.326
				c0.832-18.814,12.486-28.304,32.635-28.304c14.982,0,29.969,4.662,29.969,22.311V105.359L583.708,105.359z M577.382,72.559
				c-4.996,5.66-18.648,4.995-30.969,6.66c-14.984,1.664-23.479,6.992-23.479,19.813c0,10.323,7.494,18.647,22.479,18.647
				c28.805,0,31.969-24.642,31.969-29.138V72.559L577.382,72.559z"/>
			<path fill="#FFFFFF" d="M674.623,35.597v81.084c0,6.659,0,38.295-36.963,37.129c-18.314,0-32.467-6.826-33.465-26.64h6.326
				c1.332,15.15,13.318,21.146,27.307,21.146c29.969,0,30.469-24.476,30.469-30.136V98.534h-0.334
				c-5.994,12.652-16.482,19.479-30.969,19.479c-25.141,0-36.961-18.48-36.961-42.29c0-22.644,12.818-42.124,36.961-42.124
				c13.32,0,26.307,6.993,30.969,19.813h0.334V35.597H674.623z M606.359,75.723c0,20.146,10.488,36.796,30.635,36.796
				c20.813,0,31.135-17.481,31.135-36.796c0-19.147-10.156-36.629-31.135-36.629C616.349,39.093,606.359,57.575,606.359,75.723z"/>
			<path fill="#FFFFFF" d="M756.38,105.359c0,4.995,0,10.322,5.66,10.322c1.166,0,2.664-0.166,4.662-0.499v5.328
				c-1.832,0.332-3.496,0.666-5.162,0.666c-9.99,0-11.488-5.495-11.488-12.487v-4.496h-0.332
				c-3.996,10.157-15.484,18.981-31.801,18.981c-16.15,0-28.639-6.161-28.639-24.143c0-19.98,17.314-24.143,31.469-25.309
				c28.305-1.998,29.469-3.829,29.469-17.815c0-3.83-4.328-16.816-23.809-16.816c-15.318,0-25.475,7.992-26.307,22.81h-6.328
				c0.834-18.814,12.488-28.304,32.635-28.304c14.984,0,29.971,4.662,29.971,22.311V105.359L756.38,105.359z M750.052,72.559
				c-4.994,5.66-18.646,4.995-30.969,6.66c-14.984,1.664-23.475,6.992-23.475,19.813c0,10.323,7.49,18.647,22.477,18.647
				c28.803,0,31.967-24.642,31.967-29.138V72.559z"/>
			<path fill="#FFFFFF" d="M779.529,92.706c1,15.816,12.82,24.975,28.305,24.975c11.156,0,27.139-3.329,27.139-18.146
				c0-14.486-14.65-16.65-29.303-19.648c-14.818-2.996-29.471-6.825-29.471-24.307c0-16.983,16.482-21.978,30.969-21.978
				c18.146,0,31.635,7.825,31.635,27.305h-6.326c-0.168-15.484-10.988-21.812-25.309-21.812c-11.654,0-24.641,4.329-24.641,16.483
				c0,13.653,14.65,15.817,28.471,18.814c16.98,3.164,30.303,7.158,30.303,25.143c0,18.479-18.48,23.643-33.467,23.643
				c-19.48,0-34.131-10.49-34.631-30.471H779.529L779.529,92.706z"/>
		</g>
	</g>
</g>
</svg>
